<mxfile host="app.diagrams.net" agent="Mozilla/5.0 (Windows NT 10.0; Win64; x64) AppleWebKit/537.36 (KHTML, like Gecko) Chrome/133.0.0.0 Safari/537.36" version="26.0.16">
  <diagram name="Page-1" id="rP0SBNsN-EVZiWS7vNh4">
    <mxGraphModel dx="552" dy="297" grid="1" gridSize="10" guides="1" tooltips="1" connect="1" arrows="1" fold="1" page="1" pageScale="1" pageWidth="827" pageHeight="1169" math="0" shadow="0">
      <root>
        <mxCell id="0" />
        <mxCell id="1" parent="0" />
        <mxCell id="vaMEkbqWJYiL1uNRAGwf-1" value="" style="ellipse;whiteSpace=wrap;html=1;aspect=fixed;fillColor=#dae8fc;strokeColor=#6c8ebf;" vertex="1" parent="1">
          <mxGeometry x="390" y="620" width="10" height="10" as="geometry" />
        </mxCell>
        <mxCell id="vaMEkbqWJYiL1uNRAGwf-2" value="" style="ellipse;whiteSpace=wrap;html=1;aspect=fixed;fillColor=#dae8fc;strokeColor=#6c8ebf;" vertex="1" parent="1">
          <mxGeometry x="430" y="660" width="10" height="10" as="geometry" />
        </mxCell>
        <mxCell id="vaMEkbqWJYiL1uNRAGwf-3" value="" style="ellipse;whiteSpace=wrap;html=1;aspect=fixed;fillColor=#dae8fc;strokeColor=#6c8ebf;" vertex="1" parent="1">
          <mxGeometry x="410" y="580" width="10" height="10" as="geometry" />
        </mxCell>
        <mxCell id="vaMEkbqWJYiL1uNRAGwf-4" value="" style="ellipse;whiteSpace=wrap;html=1;aspect=fixed;fillColor=#dae8fc;strokeColor=#6c8ebf;" vertex="1" parent="1">
          <mxGeometry x="470" y="640" width="10" height="10" as="geometry" />
        </mxCell>
        <mxCell id="vaMEkbqWJYiL1uNRAGwf-5" value="" style="ellipse;whiteSpace=wrap;html=1;aspect=fixed;fillColor=#d5e8d4;strokeColor=#82b366;" vertex="1" parent="1">
          <mxGeometry x="300" y="630" width="10" height="10" as="geometry" />
        </mxCell>
        <mxCell id="vaMEkbqWJYiL1uNRAGwf-6" value="" style="ellipse;whiteSpace=wrap;html=1;aspect=fixed;fillColor=#d5e8d4;strokeColor=#82b366;" vertex="1" parent="1">
          <mxGeometry x="340" y="690" width="10" height="10" as="geometry" />
        </mxCell>
        <mxCell id="vaMEkbqWJYiL1uNRAGwf-7" value="" style="ellipse;whiteSpace=wrap;html=1;aspect=fixed;fillColor=#d5e8d4;strokeColor=#82b366;" vertex="1" parent="1">
          <mxGeometry x="400" y="730" width="10" height="10" as="geometry" />
        </mxCell>
        <mxCell id="vaMEkbqWJYiL1uNRAGwf-8" value="" style="ellipse;whiteSpace=wrap;html=1;aspect=fixed;fillColor=#d5e8d4;strokeColor=#82b366;" vertex="1" parent="1">
          <mxGeometry x="280" y="670" width="10" height="10" as="geometry" />
        </mxCell>
        <mxCell id="vaMEkbqWJYiL1uNRAGwf-17" value="" style="endArrow=none;html=1;rounded=0;" edge="1" parent="1">
          <mxGeometry width="50" height="50" relative="1" as="geometry">
            <mxPoint x="320" y="600" as="sourcePoint" />
            <mxPoint x="440" y="720" as="targetPoint" />
          </mxGeometry>
        </mxCell>
        <mxCell id="vaMEkbqWJYiL1uNRAGwf-18" value="" style="endArrow=none;html=1;rounded=0;fillColor=#ffe6cc;strokeColor=#d79b00;" edge="1" parent="1">
          <mxGeometry width="50" height="50" relative="1" as="geometry">
            <mxPoint x="340" y="585" as="sourcePoint" />
            <mxPoint x="460" y="705" as="targetPoint" />
          </mxGeometry>
        </mxCell>
        <mxCell id="vaMEkbqWJYiL1uNRAGwf-20" value="" style="endArrow=none;html=1;rounded=0;fillColor=#ffe6cc;strokeColor=#d79b00;" edge="1" parent="1">
          <mxGeometry width="50" height="50" relative="1" as="geometry">
            <mxPoint x="300" y="620" as="sourcePoint" />
            <mxPoint x="420" y="740" as="targetPoint" />
          </mxGeometry>
        </mxCell>
        <mxCell id="vaMEkbqWJYiL1uNRAGwf-23" value="" style="endArrow=none;dashed=1;html=1;dashPattern=1 4;strokeWidth=1;rounded=0;exitX=1;exitY=0;exitDx=0;exitDy=0;jumpSize=6;fillColor=#f8cecc;strokeColor=#b85450;" edge="1" parent="1" source="vaMEkbqWJYiL1uNRAGwf-5">
          <mxGeometry width="50" height="50" relative="1" as="geometry">
            <mxPoint x="280" y="660" as="sourcePoint" />
            <mxPoint x="330" y="610" as="targetPoint" />
          </mxGeometry>
        </mxCell>
        <mxCell id="vaMEkbqWJYiL1uNRAGwf-24" value="" style="endArrow=none;dashed=1;html=1;dashPattern=1 3;strokeWidth=1;rounded=0;exitX=1;exitY=0;exitDx=0;exitDy=0;fillColor=#f8cecc;strokeColor=#b85450;" edge="1" parent="1" source="vaMEkbqWJYiL1uNRAGwf-8">
          <mxGeometry width="50" height="50" relative="1" as="geometry">
            <mxPoint x="289" y="670" as="sourcePoint" />
            <mxPoint x="340" y="619.8130841121496" as="targetPoint" />
          </mxGeometry>
        </mxCell>
        <mxCell id="vaMEkbqWJYiL1uNRAGwf-25" value="" style="endArrow=none;dashed=1;html=1;dashPattern=1 3;strokeWidth=1;rounded=0;exitX=1;exitY=0;exitDx=0;exitDy=0;fillColor=#f8cecc;strokeColor=#b85450;" edge="1" parent="1">
          <mxGeometry width="50" height="50" relative="1" as="geometry">
            <mxPoint x="349" y="691.19" as="sourcePoint" />
            <mxPoint x="380" y="660" as="targetPoint" />
          </mxGeometry>
        </mxCell>
        <mxCell id="vaMEkbqWJYiL1uNRAGwf-26" value="" style="endArrow=none;dashed=1;html=1;dashPattern=1 3;strokeWidth=1;rounded=0;exitX=1;exitY=0;exitDx=0;exitDy=0;fillColor=#f8cecc;strokeColor=#b85450;" edge="1" parent="1">
          <mxGeometry width="50" height="50" relative="1" as="geometry">
            <mxPoint x="409" y="731.19" as="sourcePoint" />
            <mxPoint x="430" y="710" as="targetPoint" />
          </mxGeometry>
        </mxCell>
        <mxCell id="vaMEkbqWJYiL1uNRAGwf-27" value="" style="endArrow=none;dashed=1;html=1;dashPattern=1 4;strokeWidth=1;rounded=0;jumpSize=6;entryX=0;entryY=1;entryDx=0;entryDy=0;fillColor=#f8cecc;strokeColor=#b85450;" edge="1" parent="1" target="vaMEkbqWJYiL1uNRAGwf-3">
          <mxGeometry width="50" height="50" relative="1" as="geometry">
            <mxPoint x="360" y="640" as="sourcePoint" />
            <mxPoint x="404" y="590" as="targetPoint" />
          </mxGeometry>
        </mxCell>
        <mxCell id="vaMEkbqWJYiL1uNRAGwf-29" value="" style="endArrow=none;dashed=1;html=1;dashPattern=1 4;strokeWidth=1;rounded=0;jumpSize=6;entryX=0;entryY=1;entryDx=0;entryDy=0;fillColor=#f8cecc;strokeColor=#b85450;" edge="1" parent="1" target="vaMEkbqWJYiL1uNRAGwf-1">
          <mxGeometry width="50" height="50" relative="1" as="geometry">
            <mxPoint x="370" y="650" as="sourcePoint" />
            <mxPoint x="414" y="600" as="targetPoint" />
          </mxGeometry>
        </mxCell>
        <mxCell id="vaMEkbqWJYiL1uNRAGwf-30" value="" style="endArrow=none;dashed=1;html=1;dashPattern=1 4;strokeWidth=1;rounded=0;jumpSize=6;entryX=0;entryY=1;entryDx=0;entryDy=0;fillColor=#f8cecc;strokeColor=#b85450;" edge="1" parent="1">
          <mxGeometry width="50" height="50" relative="1" as="geometry">
            <mxPoint x="410" y="690" as="sourcePoint" />
            <mxPoint x="431" y="669" as="targetPoint" />
          </mxGeometry>
        </mxCell>
        <mxCell id="vaMEkbqWJYiL1uNRAGwf-31" value="" style="endArrow=none;dashed=1;html=1;dashPattern=1 4;strokeWidth=1;rounded=0;jumpSize=6;entryX=0;entryY=1;entryDx=0;entryDy=0;fillColor=#f8cecc;strokeColor=#b85450;" edge="1" parent="1">
          <mxGeometry width="50" height="50" relative="1" as="geometry">
            <mxPoint x="420" y="700.5" as="sourcePoint" />
            <mxPoint x="471" y="649.5" as="targetPoint" />
          </mxGeometry>
        </mxCell>
      </root>
    </mxGraphModel>
  </diagram>
</mxfile>
